#!OML:ASF E:\Style4\Style4.ASF
:FULLY-SPECIFIED
:DEGREES
942
root -0.00154157 16.9437 -1.55588 2.87882 -14.6325 4.30808
lowerback 17.0676 3.65242 -4.0843
upperback 10.4404 4.06833 -4.24026
thorax 1.68397 1.94588 -2.80223
lowerneck 7.47453 -5.57752 -8.61224
upperneck -3.74473 -7.90549 7.32992
head -1.86535 -4.04265 4.25374
rclavicle -3.85642e-014 2.98177e-014
rhumerus 11.5962 25.4384 -78.6275
rradius 116.248
rwrist -20.7376
rhand 39.1136 0.847945
rfingers 7.12502
rthumb 61.6564 -11.0673
lclavicle -3.85642e-014 2.98177e-014
lhumerus -6.77674 -34.3961 79.7288
lradius 124.5
lwrist -16.3151
lhand 22.9877 42.7864
lfingers 7.12502
lthumb 47.3075 65.3159
rfemur -34.4532 4.30495 14.7709
rtibia 53.0323
rfoot -20.7908 -11.0483
rtoes -17.5042
lfemur -27.581 8.527 -21.8897
ltibia 49.7005
lfoot -25.2439 11.7572
ltoes -16.6296
943
root 0.00664495 16.9508 -1.53938 2.78419 -14.708 4.252
lowerback 17.2693 3.62037 -4.2332
upperback 10.3004 3.98428 -3.97218
thorax 1.3944 1.88985 -2.4386
lowerneck 7.43191 -5.54445 -8.67234
upperneck -3.59146 -7.87344 7.18865
head -1.81245 -4.02192 4.20698
rclavicle 9.14409e-015 -7.03698e-014
rhumerus 9.68958 25.4666 -79.1122
rradius 116.691
rwrist -20.8338
rhand 38.9589 0.534616
rfingers 7.12502
rthumb 61.5267 -11.5364
lclavicle 9.14409e-015 -7.03698e-014
lhumerus -7.24698 -34.3236 79.9527
lradius 124.594
lwrist -16.4877
lhand 23.4023 42.9617
lfingers 7.12502
lthumb 47.6904 65.3177
rfemur -34.2314 4.3421 14.8095
rtibia 52.9135
rfoot -20.7712 -10.9628
rtoes -17.1533
lfemur -27.3307 8.52212 -21.8402
ltibia 49.585
lfoot -25.2898 11.7748
ltoes -16.2716
944
root 0.016245 16.9584 -1.52307 2.80862 -14.78 4.24398
lowerback 16.4739 3.56401 -3.79016
upperback 10.7742 4.05595 -4.05778
thorax 2.35576 1.9421 -2.72442
lowerneck 7.22959 -5.6783 -8.52986
upperneck -4.02821 -7.99991 7.51605
head -1.90176 -4.09199 4.30266
rclavicle -8.74653e-015 3.81667e-014
rhumerus 8.71824 24.8237 -79.5731
rradius 116.941
rwrist -20.739
rhand 38.6015 0.468676
rfingers 7.12502
rthumb 61.2261 -11.9567
lclavicle -8.74653e-015 3.81667e-014
lhumerus -6.47832 -34.4234 79.1037
lradius 124.533
lwrist -16.4353
lhand 23.7024 42.8056
lfingers 7.12502
lthumb 47.9673 65.0337
rfemur -34.1341 4.36606 14.7654
rtibia 52.7632
rfoot -20.7885 -10.769
rtoes -16.262
lfemur -27.2191 8.47227 -21.8722
ltibia 49.4588
lfoot -25.3546 11.7447
ltoes -15.718
945
root 0.0263924 16.9658 -1.50918 2.83669 -14.8518 4.29312
lowerback 16.0987 3.48807 -3.74378
upperback 10.8814 3.99633 -3.97481
thorax 2.66127 1.90901 -2.62843
lowerneck 7.3181 -5.69361 -8.467
upperneck -4.54234 -7.98644 7.86348
head -1.8661 -4.11049 3.98129
rclavicle -7.55382e-015 5.04913e-014
rhumerus 7.24412 24.725 -80.0338
rradius 117.151
rwrist -20.5671
rhand 38.0479 0.67717
rfingers 7.12502
rthumb 60.7582 -12.2817
lclavicle -7.55382e-015 5.04913e-014
lhumerus -6.8741 -34.3243 79.1857
lradius 124.546
lwrist -16.4521
lhand 23.379 42.7468
lfingers 7.12502
lthumb 47.6689 65.1126
rfemur -34.0572 4.37556 14.6581
rtibia 52.5997
rfoot -20.7081 -10.8622
rtoes -17.1797
lfemur -27.1317 8.4134 -21.9806
ltibia 49.3096
lfoot -25.3389 11.8575
ltoes -15.8444
946
root 0.036364 16.9747 -1.49675 2.86405 -14.918 4.26282
lowerback 16.0062 3.39571 -3.71606
upperback 10.8541 3.8843 -3.82591
thorax 2.66572 1.84838 -2.46618
lowerneck 7.36137 -5.667 -8.51582
upperneck -4.70027 -7.95522 7.84146
head -1.92166 -4.09327 3.98761
rclavicle -5.1684e-015 1.98785e-014
rhumerus 5.59238 24.6651 -80.4573
rradius 117.437
rwrist -20.3743
rhand 37.7496 0.86758
rfingers 7.12502
rthumb 60.505 -12.3715
lclavicle -5.1684e-015 1.98785e-014
lhumerus -7.23245 -34.1789 79.3833
lradius 124.57
lwrist -16.3846
lhand 22.9668 42.9065
lfingers 7.12502
lthumb 47.2882 65.4447
rfemur -33.9511 4.39382 14.6438
rtibia 52.4182
rfoot -20.6475 -10.9489
rtoes -18.2295
lfemur -27.0062 8.39666 -21.9986
ltibia 49.1463
lfoot -25.3702 11.8572
ltoes -15.5443
